Coordinates
version=1
nRows=13
nColumns=40
inDegrees=yes

Units are S.I. units (second, meters, Newtons, ...)
If the header above contains a line with 'inDegrees', this indicates whether rotational values are in degrees (yes) or radians (no).

endheader
time	pelvis_tilt	pelvis_list	pelvis_rotation	pelvis_tx	pelvis_ty	pelvis_tz	hip_flexion_r	hip_adduction_r	hip_rotation_r	knee_angle_r	knee_angle_r_beta	ankle_angle_r	subtalar_angle_r	mtp_angle_r	hip_flexion_l	hip_adduction_l	hip_rotation_l	knee_angle_l	knee_angle_l_beta	ankle_angle_l	subtalar_angle_l	mtp_angle_l	lumbar_extension	lumbar_bending	lumbar_rotation	arm_flex_r	arm_add_r	arm_rot_r	elbow_flex_r	pro_sup_r	wrist_flex_r	wrist_dev_r	arm_flex_l	arm_add_l	arm_rot_l	elbow_flex_l	pro_sup_l	wrist_flex_l	wrist_dev_l
      9.97500000	    -18.67708822	    -33.90875715	     89.99092290	      0.45408750	      0.82482920	     -0.68271391	     65.12647873	     18.38644286	     39.97323124	     47.45546381	      0.82825409	    -17.88871604	      0.00000000	      0.00000000	     15.02188994	     12.88737019	    -39.98369997	      0.02020243	      0.00035260	     11.53582401	      0.00000000	      0.00000000	     46.71511107	    -70.21019724	     89.80805417	     44.00706524	     10.59826810	      4.71619394	     14.07646830	     38.44863525	      0.00000000	      0.00000000	     21.16376782	    -34.09807399	     20.28597148	     45.22733914	     52.46566092	      0.00000000	      0.00000000
      9.98000000	    -18.66811008	    -33.91102519	     89.99094242	      0.45502488	      0.82468097	     -0.68265325	     65.12289819	     18.43078845	     39.97313134	     47.34295287	      0.82629041	    -18.33289942	      0.00000000	      0.00000000	     15.03145450	     12.81601840	    -39.98370890	      0.02020731	      0.00035268	     11.51911522	      0.00000000	      0.00000000	     46.71904490	    -70.55024380	     89.80775011	     44.02616690	     10.54299296	      4.70893224	     14.67433079	     38.50500831	      0.00000000	      0.00000000	     21.36429006	    -34.19064894	     20.13905480	     45.41481746	     52.40936788	      0.00000000	      0.00000000
      9.98500000	    -18.48331006	    -33.83650647	     89.99094758	      0.45605981	      0.82451391	     -0.68281844	     65.03310211	     18.68057676	     39.97303128	     47.33873759	      0.82621683	    -18.08346427	      0.00000000	      0.00000000	     14.94924795	     12.57452128	    -39.98373857	      0.02020595	      0.00035266	     11.57077298	      0.00000000	      0.00000000	     46.71451572	    -70.66725189	     89.80805687	     43.82640520	     10.51842627	      4.70248742	     15.46650391	     38.59916128	      0.00000000	      0.00000000	     21.45079343	    -34.31536500	     19.91761222	     45.59847336	     52.29503239	      0.00000000	      0.00000000
      9.99000000	    -18.42380078	    -33.69272766	     89.99099327	      0.45709966	      0.82455776	     -0.68281355	     64.87809960	     18.78110307	     39.97294826	     47.23619972	      0.82442721	    -18.45181224	      0.00000000	      0.00000000	     14.80540542	     12.45077090	    -39.98374998	      0.02020520	      0.00035265	     11.53178678	      0.00000000	      0.00000000	     46.47051110	    -70.90907784	     89.81010123	     45.47270060	     10.83007022	      4.77216063	     13.06842526	     38.24124398	      0.00000000	      0.00000000	     22.40256112	    -34.22187063	     20.83221116	     44.63493665	     52.70595744	      0.00000000	      0.00000000
      9.99500000	    -18.24928450	    -33.61966178	     89.99099604	      0.45809086	      0.82437982	     -0.68297466	     64.79134450	     19.01333867	     39.97283532	     47.22503262	      0.82423231	    -18.21602924	      0.00000000	      0.00000000	     14.72019756	     12.21979904	    -39.98377910	      0.02020195	      0.00035259	     11.58664282	      0.00000000	      0.00000000	     46.46699599	    -71.04539941	     89.80983241	     45.21079232	     10.79636997	      4.76313392	     13.98035173	     38.34197029	      0.00000000	      0.00000000	     22.46678327	    -34.34541569	     20.57920161	     44.86595206	     52.58748225	      0.00000000	      0.00000000
     10.00000000	    -18.21350519	    -33.57577924	     89.99101733	      0.45904048	      0.82430302	     -0.68299375	     64.73290806	     19.07684592	     39.97276669	     47.09908165	      0.82203405	    -18.64908154	      0.00000000	      0.00000000	     14.67925569	     12.12284931	    -39.98379599	      0.02019717	      0.00035251	     11.57272541	      0.00000000	      0.00000000	     46.42722412	    -71.36677833	     89.80901854	     45.19974496	     10.71415676	      4.75192430	     14.58790091	     38.40157834	      0.00000000	      0.00000000	     22.69221642	    -34.45449313	     20.40268869	     45.08858119	     52.52400251	      0.00000000	      0.00000000
     10.00500000	    -18.03257271	    -33.49138947	     89.99102125	      0.46002793	      0.82412251	     -0.68315256	     64.64389718	     19.32766455	     39.97263927	     47.12185945	      0.82243160	    -18.39146653	      0.00000000	      0.00000000	     14.58380156	     11.88436046	    -39.98381954	      0.02019766	      0.00035252	     11.61350237	      0.00000000	      0.00000000	     46.42178743	    -71.48405482	     89.80871433	     45.00401886	     10.69076237	      4.74648550	     15.42386034	     38.50151987	      0.00000000	      0.00000000	     22.74507593	    -34.55364718	     20.19665438	     45.27573801	     52.40391965	      0.00000000	      0.00000000
     10.01000000	    -17.93669264	    -33.33567446	     89.99106590	      0.46110805	      0.82415199	     -0.68315391	     64.47549747	     19.45582713	     39.97253398	     46.99694800	      0.82025148	    -18.79285200	      0.00000000	      0.00000000	     14.42984296	     11.71942714	    -39.98384002	      0.02018971	      0.00035238	     11.58795281	      0.00000000	      0.00000000	     46.15667140	    -71.68055049	     89.81020165	     46.71644017	     11.01794478	      4.82296284	     12.90342738	     38.12745165	      0.00000000	      0.00000000	     23.75076352	    -34.68807624	     21.45272033	     44.79856108	     52.85395724	      0.00000000	      0.00000000
     10.01500000	    -17.80694513	    -33.26374851	     89.99108023	      0.46206484	      0.82405724	     -0.68322968	     64.38346412	     19.62839614	     39.97245694	     46.92800778	      0.81904825	    -18.80507236	      0.00000000	      0.00000000	     14.35956634	     11.53283798	    -39.98385882	      0.02020270	      0.00035260	     11.62060143	      0.00000000	      0.00000000	     46.15432401	    -71.90066807	     89.80992785	     46.51898914	     10.96492302	      4.81342954	     13.83522568	     38.22282339	      0.00000000	      0.00000000	     23.76807898	    -34.83781017	     21.17437492	     44.95653823	     52.74313689	      0.00000000	      0.00000000
     10.02000000	    -17.69484144	    -33.21004866	     89.99108865	      0.46295077	      0.82389022	     -0.68331404	     64.31677036	     19.78886721	     39.97232898	     46.87594178	      0.81813952	    -19.02021367	      0.00000000	      0.00000000	     14.30233878	     11.36680817	    -39.98386750	      0.02020726	      0.00035268	     11.59643979	      0.00000000	      0.00000000	     46.12116518	    -72.09191223	     89.80884842	     46.45992910	     10.90892101	      4.80669088	     14.45770225	     38.28508816	      0.00000000	      0.00000000	     23.97647208	    -34.88689526	     21.00446468	     45.20156666	     52.67698333	      0.00000000	      0.00000000
     10.02500000	    -17.53255381	    -33.09299125	     89.99110533	      0.46395369	      0.82380160	     -0.68337265	     64.17485262	     19.98676490	     39.97220029	     46.78693581	      0.81658608	    -19.07197464	      0.00000000	      0.00000000	     14.18743776	     11.14352126	    -39.98388370	      0.02022517	      0.00035300	     11.63494522	      0.00000000	      0.00000000	     45.96133020	    -72.21009439	     89.81034369	     47.78311656	     11.22622873	      4.87206644	     12.53453120	     37.95144609	      0.00000000	      0.00000000	     24.66866472	    -34.94498679	     21.70143429	     44.72673156	     53.10476576	      0.00000000	      0.00000000
     10.03000000	    -17.36795893	    -32.98784530	     89.99112157	      0.46500759	      0.82372530	     -0.68356384	     64.05477408	     20.20241436	     39.97206312	     46.73311775	      0.81564677	    -19.07098289	      0.00000000	      0.00000000	     14.07132268	     10.91341764	    -39.98390243	      0.02023885	      0.00035323	     11.65241519	      0.00000000	      0.00000000	     45.91544857	    -72.39466211	     89.81036606	     47.54941586	     11.17592575	      4.86290000	     13.50058302	     38.04952665	      0.00000000	      0.00000000	     24.76191776	    -35.08494646	     21.41505296	     45.00621562	     52.99821828	      0.00000000	      0.00000000
     10.03500000	    -17.20220025	    -32.87989083	     89.99113338	      0.46597936	      0.82360738	     -0.68364957	     63.93753583	     20.40943566	     39.97190149	     46.67506684	      0.81463359	    -19.22034524	      0.00000000	      0.00000000	     13.95880150	     10.68662689	    -39.98391342	      0.02025846	      0.00035358	     11.67006936	      0.00000000	      0.00000000	     45.81448206	    -72.51832026	     89.81068293	     48.52413109	     11.42271621	      4.91219132	     12.22283034	     37.76150405	      0.00000000	      0.00000000	     25.18595463	    -35.19599918	     21.74929985	     44.87424995	     53.44998189	      0.00000000	      0.00000000
